<svg width="34" height="41" viewBox="0 0 34 41" fill="none" xmlns="http://www.w3.org/2000/svg">
<path fill-rule="evenodd" clip-rule="evenodd" d="M17.4409 11.84C18.7459 11.84 20.0519 11.832 21.3569 11.848C21.6054 11.8526 21.85 11.9109 22.0739 12.019C24.5198 13.2842 26.6624 15.0648 28.3539 17.238C30.7449 20.0661 32.4615 23.4008 33.3739 26.99C33.9907 29.0644 33.9636 31.2773 33.2959 33.336C32.4622 35.4601 30.8286 37.1725 28.7459 38.105C26.5628 39.1835 24.1943 39.8365 21.7669 40.029C19.7015 40.2237 17.6275 40.3145 15.5529 40.301C12.5672 40.3517 9.60072 39.8138 6.82295 38.718C4.54524 37.9007 2.69991 36.1889 1.71394 33.979C0.9991 32.2528 0.812881 30.3532 1.17891 28.521C2.30574 22.1647 5.93642 16.5267 11.257 12.871C12.2232 12.0954 13.4501 11.72 14.685 11.822C15.6027 11.8751 16.5225 11.8811 17.4408 11.84H17.4409ZM18.0994 23.233C18.1553 24.5245 17.2849 25.6733 16.0264 25.969C15.3386 26.0656 14.6436 26.1024 13.9494 26.0789C13.3534 26.0538 12.8032 26.3974 12.5644 26.9439C12.3002 27.5021 12.4452 28.1682 12.9174 28.566C14.7801 30.4326 16.6467 32.2993 18.5174 34.166C18.7736 34.4526 19.1368 34.6206 19.5211 34.63C19.9053 34.6395 20.2764 34.4897 20.5464 34.216C20.8278 33.9438 20.9831 33.5667 20.9752 33.1753C20.9672 32.7839 20.7966 32.4135 20.5044 32.153C20.0804 31.718 19.6464 31.291 19.2144 30.864C18.4914 30.149 17.7655 29.437 17.0025 28.686C19.3521 27.8952 20.9526 25.7146 21.0025 23.236C21.4484 23.236 21.8624 23.242 22.2755 23.236C22.7835 23.227 23.1225 22.927 23.1115 22.509C23.0994 22.3055 23.0049 22.1158 22.8497 21.9837C22.6945 21.8515 22.4922 21.7885 22.2894 21.809C21.8745 21.8 21.4585 21.8199 21.0444 21.801C20.9375 21.801 20.7644 21.7169 20.7445 21.637C20.4224 20.6126 19.8397 19.6895 19.0535 18.958H22.1635C22.7575 18.958 23.1095 18.698 23.1155 18.258C23.1215 17.818 22.7735 17.532 22.1875 17.532C19.4595 17.532 16.7312 17.532 14.0025 17.532C13.4641 17.4808 12.9429 17.7376 12.6557 18.1958C12.3684 18.654 12.3641 19.235 12.6446 19.6973C12.9251 20.1597 13.4425 20.4242 13.9815 20.381C14.4705 20.3889 14.9615 20.3579 15.4495 20.386C16.4069 20.4396 17.2722 20.9735 17.7496 21.805H17.1795C15.8895 21.805 14.5995 21.805 13.3095 21.805C12.7855 21.805 12.4525 22.075 12.4365 22.494C12.4205 22.913 12.7775 23.228 13.3095 23.2299C14.1845 23.2299 15.0595 23.2299 15.9345 23.2299L18.0994 23.233Z" fill="#DD50F2"/>
<path fill-rule="evenodd" clip-rule="evenodd" d="M21.6846 9.68602H13.1706C12.9816 7.52902 11.6166 6.14902 10.0096 4.97002C9.16078 4.37645 8.27681 3.83479 7.36263 3.34801C6.62263 2.93202 6.51265 2.44803 7.12062 1.84802C7.78957 1.25427 8.61299 0.862137 9.49562 0.71701C11.5966 0.307755 13.763 0.379211 15.8325 0.92601C17.3196 1.25401 18.8176 1.537 20.3186 1.78902C21.6494 1.92598 22.9942 1.78325 24.2666 1.37001C25.1826 1.14001 26.0776 0.826004 26.9776 0.534012C27.4916 0.368011 27.8246 0.444016 28.0186 0.813019C28.2127 1.18202 28.1037 1.51802 27.6706 1.83102C25.9075 3.04306 24.349 4.52835 23.0535 6.23102C22.27 7.22453 21.7941 8.42549 21.6846 9.68602Z" fill="#DD50F2"/>
</svg>
